<svg width="244" height="58" viewBox="0 0 244 58" fill="none" xmlns="http://www.w3.org/2000/svg">
<path d="M57.0119 14.622V42.0149L49.7738 56.622L49.5357 57.0863L30.369 55.8125L23 55.3244L5.90475 54.1935V21.4315L23 21.9196L30.6548 22.1339L50 22.6815L57.0119 14.622Z" fill="#3485FF"/>
<path opacity="0.1" d="M57.0119 16.2411V42.0149L55.2381 45.5744L53.4286 49.2411L49.7738 56.6221L50.1786 29.2292L50.2619 23.7054L53.7381 19.8602L55.2619 18.1816L57.0119 16.2411Z" fill="#202020"/>
<g filter="url(#filter0_d_3_270)">
<path d="M58 7.34824V16.9197L57.0119 18.4792L55.25 21.2768L53.7024 23.753L50.2619 29.2292H50.1786L4.39285 26.8721V17.4435L4.5119 17.3125L9.97619 11.3959L11.9524 9.253L15.5357 5.38396L58 7.34824Z" fill="#3485FF"/>
</g>
<path d="M33.75 12.0625L30.6786 18.7291L30.6548 22.1339L30.369 55.8125L23 55.3244V18.2887L26.9286 12.0625H33.75Z" fill="#0D114F"/>
<g filter="url(#filter1_d_3_270)">
<path d="M23.6309 12.5149C21.8571 13.1101 19.9524 13.1697 18.1428 12.7054C17.7857 12.6339 17.4643 12.4792 17.1786 12.253C16.8809 11.9197 16.6667 11.5149 16.5833 11.0744C16.2619 10.1697 16.0833 9.21727 16.0595 8.25299C16.0833 7.2887 16.4524 6.2887 17.2381 5.72918C17.3928 5.63394 17.5476 5.51489 17.6786 5.39584C17.8452 5.19346 17.9643 4.95537 18.0238 4.69346C18.5595 3.08632 19.6071 1.39584 21.2738 1.14584C22.8095 0.907748 24.2143 1.97918 25.4047 2.99108L28.0119 5.20537C28.7976 3.07441 31.1667 1.99108 33.2976 2.7887C34.3809 3.19346 35.2381 4.0268 35.6786 5.09822C37.2619 3.32441 39.25 1.95537 41.4762 1.12203C41.9643 0.943462 42.5476 0.7887 43 1.06251C43.2738 1.26489 43.4881 1.5506 43.6071 1.87203C44.3214 3.41965 44.7024 5.11013 44.7381 6.81251C45.1071 6.68156 45.5238 6.82441 45.7381 7.15775C45.9405 7.49108 46.0595 7.86013 46.0714 8.24108C46.1428 8.83632 46.1786 9.43156 46.1786 10.0387C46.1786 10.6697 46.119 11.3482 45.7024 11.8363C45.1666 12.4554 44.25 12.5268 43.4286 12.5387C43.8214 12.8839 43.6309 13.5863 43.1905 13.8839C42.75 14.1816 42.1905 14.1816 41.6667 14.1816C39.6428 14.1577 37.4881 14.1101 35.7976 12.9792C35.1309 12.5387 34.5714 11.9435 33.9047 11.503C32.2738 10.4197 30.2143 10.372 28.3214 10.4554C26.6071 10.5387 25.2619 11.9554 23.6309 12.503V12.5149Z" fill="#0D114F"/>
</g>
<g filter="url(#filter2_d_3_270)">
<path d="M23.2619 12.0625C23.2619 12.0625 6.35714 14.4196 4 24.6458L7.53571 24.122L10.0238 28.5744C10.0238 28.5744 12.6429 18.6101 20.381 16.2529C28.119 13.8958 30.869 13.5029 30.869 13.5029C30.869 13.5029 36.2381 14.8125 41.0952 30.4077L43.8452 26.6101L48.6905 27.6577C48.6905 27.6577 45.1548 15.4672 35.5833 12.0625H23.2619Z" fill="#0D114F"/>
</g>
<path d="M77.88 24.2V21.72H84.5V21.86C84.5 23.48 83.92 25.94 82.44 27.48C80.96 29.02 79.26 29.3 77.68 29.3C76.08 29.3 74.36 29.04 72.8 27.44C72.02 26.64 70.84 25.02 70.84 22.36C70.84 20.18 71.64 18.44 72.76 17.3C74.4 15.6 76.42 15.36 78 15.36C79.1 15.36 80.5 15.54 81.74 16.36C82.64 16.96 83.42 17.9 83.9 18.74L81.12 20.24C80.86 19.72 80.46 19.18 79.94 18.8C79.34 18.36 78.66 18.16 77.9 18.16C76.68 18.16 75.78 18.56 75.14 19.24C74.4 20.02 74 21.16 74 22.4C74 23.92 74.56 24.9 75.12 25.46C75.9 26.26 76.8 26.5 77.82 26.5C79.14 26.5 79.84 26.04 80.14 25.78C80.24 25.7 80.84 25.18 81.1 24.2H77.88ZM93.292 21.08V20.08H96.172V29H93.292V27.92C92.512 29.12 91.392 29.3 90.652 29.3C89.372 29.3 88.292 28.98 87.312 27.94C86.372 26.94 86.012 25.78 86.012 24.6C86.012 23.1 86.572 21.82 87.392 21C88.172 20.22 89.252 19.78 90.492 19.78C91.252 19.78 92.472 19.96 93.292 21.08ZM91.212 22.26C90.592 22.26 90.012 22.52 89.632 22.9C89.332 23.2 88.972 23.72 88.972 24.52C88.972 25.32 89.312 25.84 89.572 26.12C89.972 26.54 90.592 26.82 91.272 26.82C91.852 26.82 92.392 26.58 92.772 26.2C93.152 25.84 93.472 25.28 93.472 24.52C93.472 23.88 93.232 23.28 92.812 22.88C92.372 22.46 91.732 22.26 91.212 22.26ZM98.4052 29V20.08H101.285V21.14C102.165 20.02 103.205 19.84 104.045 19.84C104.825 19.84 105.845 19.98 106.605 20.74C107.445 21.58 107.505 22.64 107.505 23.36V29H104.625V24.42C104.625 23.84 104.605 23.1 104.145 22.64C103.925 22.42 103.565 22.24 103.045 22.24C102.445 22.24 102.065 22.48 101.845 22.72C101.365 23.2 101.285 23.84 101.285 24.42V29H98.4052ZM109.833 29V14.42H112.713V21.14C113.073 20.7 113.453 20.4 113.793 20.22C114.393 19.9 114.893 19.84 115.533 19.84C116.233 19.84 117.273 19.94 118.053 20.74C118.873 21.56 118.933 22.66 118.933 23.34V29H116.053V24.42C116.053 23.8 116.033 23.08 115.573 22.64C115.313 22.38 114.873 22.24 114.453 22.24C113.833 22.24 113.473 22.52 113.313 22.68C112.733 23.24 112.713 24.1 112.713 24.54V29H109.833ZM131.004 24.54C131.004 25.68 130.564 26.96 129.664 27.86C128.864 28.66 127.504 29.3 125.764 29.3C124.024 29.3 122.664 28.66 121.864 27.86C120.964 26.96 120.524 25.68 120.524 24.54C120.524 23.4 120.964 22.12 121.864 21.22C122.664 20.42 124.024 19.78 125.764 19.78C127.504 19.78 128.864 20.42 129.664 21.22C130.564 22.12 131.004 23.4 131.004 24.54ZM125.764 22.22C125.104 22.22 124.564 22.44 124.144 22.86C123.724 23.28 123.484 23.82 123.484 24.54C123.484 25.36 123.804 25.88 124.144 26.22C124.504 26.58 125.024 26.86 125.784 26.86C126.424 26.86 126.964 26.64 127.384 26.22C127.804 25.8 128.044 25.26 128.044 24.54C128.044 23.82 127.804 23.28 127.384 22.86C126.964 22.44 126.424 22.22 125.764 22.22ZM132.8 20.08H135.68V25C135.68 25.4 135.72 26.02 136.18 26.44C136.38 26.62 136.74 26.86 137.38 26.86C137.92 26.86 138.34 26.68 138.6 26.44C139.02 26.04 139.08 25.44 139.08 25V20.08H141.96V25.28C141.96 26.3 141.86 27.26 140.96 28.14C139.94 29.14 138.44 29.3 137.38 29.3C136.28 29.3 134.8 29.14 133.78 28.14C132.96 27.34 132.8 26.44 132.8 25.46V20.08ZM149.214 15.66H153.294C154.014 15.66 155.654 15.7 156.694 16.68C157.554 17.5 157.654 18.62 157.654 19.2C157.654 19.72 157.574 20.32 157.214 20.9C156.874 21.46 156.414 21.74 156.094 21.88C156.734 21.98 157.454 22.3 157.934 22.78C158.374 23.22 158.794 23.98 158.794 25.16C158.794 26.5 158.274 27.34 157.754 27.86C156.654 28.92 155.054 29 154.234 29H149.214V15.66ZM152.254 18.06V21.08H152.754C153.174 21.08 153.874 21.02 154.314 20.7C154.594 20.5 154.854 20.1 154.854 19.52C154.854 18.94 154.574 18.58 154.334 18.4C153.894 18.06 153.294 18.06 152.734 18.06H152.254ZM152.254 23.36V26.6H152.994C153.774 26.6 154.714 26.58 155.274 26.06C155.554 25.8 155.714 25.42 155.714 24.94C155.714 24.4 155.494 24.04 155.294 23.86C154.754 23.36 153.714 23.36 153.094 23.36H152.254ZM163.329 23.32H167.229C167.209 23.24 167.069 22.68 166.649 22.28C166.329 21.98 165.869 21.78 165.289 21.78C164.549 21.78 164.109 22.08 163.829 22.36C163.609 22.6 163.409 22.92 163.329 23.32ZM169.889 24.74V25.04H163.229C163.229 25.52 163.409 26.16 163.769 26.56C164.209 27.04 164.809 27.12 165.249 27.12C165.669 27.12 166.109 27.04 166.409 26.86C166.449 26.84 166.789 26.62 167.029 26.12L169.749 26.4C169.349 27.66 168.549 28.32 168.029 28.64C167.169 29.16 166.209 29.3 165.209 29.3C163.869 29.3 162.689 29.06 161.649 28.02C160.869 27.24 160.309 26.06 160.309 24.58C160.309 23.3 160.769 21.98 161.669 21.06C162.749 19.98 164.089 19.78 165.089 19.78C166.089 19.78 167.529 19.96 168.629 21.12C169.689 22.24 169.889 23.64 169.889 24.74ZM171.686 29V20.08H174.566V21.14C175.446 20.02 176.486 19.84 177.326 19.84C178.106 19.84 179.126 19.98 179.886 20.74C180.726 21.58 180.786 22.64 180.786 23.36V29H177.906V24.42C177.906 23.84 177.886 23.1 177.426 22.64C177.206 22.42 176.846 22.24 176.326 22.24C175.726 22.24 175.346 22.48 175.126 22.72C174.646 23.2 174.566 23.84 174.566 24.42V29H171.686ZM185.614 23.32H189.514C189.494 23.24 189.354 22.68 188.934 22.28C188.614 21.98 188.154 21.78 187.574 21.78C186.834 21.78 186.394 22.08 186.114 22.36C185.894 22.6 185.694 22.92 185.614 23.32ZM192.174 24.74V25.04H185.514C185.514 25.52 185.694 26.16 186.054 26.56C186.494 27.04 187.094 27.12 187.534 27.12C187.954 27.12 188.394 27.04 188.694 26.86C188.734 26.84 189.074 26.62 189.314 26.12L192.034 26.4C191.634 27.66 190.834 28.32 190.314 28.64C189.454 29.16 188.494 29.3 187.494 29.3C186.154 29.3 184.974 29.06 183.934 28.02C183.154 27.24 182.594 26.06 182.594 24.58C182.594 23.3 183.054 21.98 183.954 21.06C185.034 19.98 186.374 19.78 187.374 19.78C188.374 19.78 189.814 19.96 190.914 21.12C191.974 22.24 192.174 23.64 192.174 24.74ZM199.372 22.4H197.092V29H194.212V22.4H193.172V20.08H194.212V18.32C194.212 17.32 194.312 16.18 195.212 15.22C195.792 14.6 196.612 14.2 197.712 14.2C198.352 14.2 198.872 14.32 199.352 14.5V17.02C199.032 16.82 198.612 16.68 198.252 16.68C197.812 16.68 197.532 16.88 197.412 17.04C197.092 17.46 197.092 18.16 197.092 18.58V20.08H199.372V22.4ZM201.086 20.08H203.966V29H201.086V20.08ZM203.266 14.7L205.146 16L202.506 18.7L201.206 17.74L203.266 14.7ZM213.113 20.28V22.9C212.413 22.32 211.693 22.22 211.233 22.22C210.333 22.22 209.793 22.66 209.593 22.86C209.213 23.24 208.933 23.82 208.933 24.54C208.933 25.2 209.173 25.76 209.533 26.14C209.973 26.62 210.633 26.86 211.273 26.86C211.773 26.86 212.453 26.72 213.113 26.16V28.76C212.353 29.18 211.633 29.3 210.833 29.3C209.333 29.3 208.193 28.76 207.373 27.96C206.693 27.3 205.973 26.18 205.973 24.56C205.973 23.04 206.613 21.84 207.453 21.04C208.453 20.1 209.633 19.78 210.853 19.78C211.633 19.78 212.353 19.92 213.113 20.28ZM215.226 20.08H218.106V29H215.226V20.08ZM214.986 16.28C214.986 15.34 215.726 14.6 216.666 14.6C217.606 14.6 218.346 15.34 218.346 16.28C218.346 17.22 217.606 17.96 216.666 17.96C215.726 17.96 214.986 17.22 214.986 16.28ZM230.594 24.54C230.594 25.68 230.154 26.96 229.254 27.86C228.454 28.66 227.094 29.3 225.354 29.3C223.614 29.3 222.254 28.66 221.454 27.86C220.554 26.96 220.114 25.68 220.114 24.54C220.114 23.4 220.554 22.12 221.454 21.22C222.254 20.42 223.614 19.78 225.354 19.78C227.094 19.78 228.454 20.42 229.254 21.22C230.154 22.12 230.594 23.4 230.594 24.54ZM225.354 22.22C224.694 22.22 224.154 22.44 223.734 22.86C223.314 23.28 223.074 23.82 223.074 24.54C223.074 25.36 223.394 25.88 223.734 26.22C224.094 26.58 224.614 26.86 225.374 26.86C226.014 26.86 226.554 26.64 226.974 26.22C227.394 25.8 227.634 25.26 227.634 24.54C227.634 23.82 227.394 23.28 226.974 22.86C226.554 22.44 226.014 22.22 225.354 22.22ZM238.99 20.54L237.85 22.36C237.41 22.1 236.83 21.86 236.27 21.86C235.97 21.86 235.63 21.94 235.45 22.12C235.35 22.22 235.27 22.38 235.27 22.52C235.27 22.72 235.41 22.84 235.55 22.92C235.75 23.04 236.05 23.1 236.41 23.22L237.17 23.46C237.67 23.62 238.19 23.82 238.65 24.24C239.17 24.72 239.35 25.26 239.35 25.94C239.35 27.12 238.83 27.88 238.43 28.28C237.55 29.16 236.47 29.3 235.53 29.3C234.33 29.3 233.03 29.04 231.87 28.02L233.09 26.08C233.37 26.32 233.77 26.6 234.07 26.74C234.47 26.94 234.89 27.02 235.27 27.02C235.45 27.02 235.91 27.02 236.17 26.82C236.35 26.68 236.47 26.46 236.47 26.24C236.47 26.08 236.41 25.88 236.15 25.72C235.95 25.6 235.69 25.52 235.27 25.4L234.55 25.18C234.03 25.02 233.49 24.74 233.11 24.36C232.69 23.92 232.47 23.42 232.47 22.74C232.47 21.88 232.81 21.16 233.33 20.68C234.13 19.94 235.21 19.78 236.03 19.78C237.35 19.78 238.27 20.12 238.99 20.54Z" fill="white"/>
<path d="M76.72 47H75.92L72.464 41.96H72.144V47H71.44V36.328H72.976C73.792 36.328 74.528 36.392 75.232 36.872C76.064 37.448 76.336 38.328 76.336 39.16C76.336 40.216 75.872 41.304 74.544 41.752C73.984 41.944 73.472 41.96 73.232 41.96L76.72 47ZM72.144 36.968V41.32H73.168C74.688 41.32 75.6 40.52 75.6 39.144C75.6 38.072 75.072 37.512 74.656 37.288C74.208 37.032 73.44 36.968 73.024 36.968H72.144ZM83.8045 43.816H78.2205C78.2205 45.48 79.4365 46.568 80.8125 46.568C81.8685 46.568 82.6685 45.944 83.0845 45.08L83.6285 45.4C83.2445 46.136 82.3805 47.176 80.7645 47.176C78.7325 47.176 77.5485 45.672 77.5485 43.768C77.5485 41.496 79.1165 40.328 80.7165 40.328C82.4765 40.328 83.8045 41.736 83.8045 43.816ZM78.2685 43.208H83.1325C82.9725 41.912 82.0125 40.936 80.7165 40.936C79.3885 40.936 78.4445 41.944 78.2685 43.208ZM89.0269 41.384L88.4829 41.672C88.2589 41.16 87.8109 40.936 87.3469 40.936C86.6109 40.936 86.2429 41.496 86.2429 41.976C86.2429 42.616 86.7549 42.824 87.3949 43.08C88.0509 43.336 88.6589 43.512 89.0749 44.04C89.3469 44.376 89.4109 44.728 89.4109 45.096C89.4109 46.584 88.2909 47.176 87.2829 47.176C86.1949 47.176 85.2989 46.536 85.0269 45.448L85.6509 45.256C85.8749 46.12 86.5629 46.568 87.2829 46.568C88.1149 46.568 88.7389 45.976 88.7389 45.128C88.7389 44.392 88.2749 44.12 87.2829 43.72C86.6269 43.448 86.1469 43.24 85.8589 42.856C85.7149 42.664 85.5709 42.392 85.5709 42.008C85.5709 41.016 86.3229 40.328 87.3149 40.328C88.0829 40.328 88.7229 40.68 89.0269 41.384ZM91.6826 45.832V50.68H91.0426V40.472H91.6826V41.608C92.3066 40.76 93.2026 40.328 94.2426 40.328C96.2106 40.328 97.4106 41.8 97.4106 43.688C97.4106 45.608 96.1946 47.176 94.2106 47.176C92.5946 47.176 91.8746 46.152 91.6826 45.832ZM94.1946 46.568C95.8426 46.568 96.7386 45.288 96.7386 43.688C96.7386 41.896 95.5546 40.936 94.2106 40.936C92.9306 40.936 91.6506 41.848 91.6506 43.656C91.6506 45.288 92.5466 46.568 94.1946 46.568ZM102.301 40.328C104.237 40.328 105.725 41.816 105.725 43.752C105.725 45.688 104.237 47.176 102.301 47.176C100.365 47.176 98.8766 45.688 98.8766 43.752C98.8766 41.816 100.365 40.328 102.301 40.328ZM102.301 46.568C103.869 46.568 105.053 45.336 105.053 43.752C105.053 42.168 103.869 40.936 102.301 40.936C100.733 40.936 99.5486 42.168 99.5486 43.752C99.5486 45.336 100.733 46.568 102.301 46.568ZM107.605 47V40.472H108.245V41.496C108.549 40.952 109.141 40.328 110.245 40.328C111.413 40.328 111.909 41.016 112.053 41.24C112.341 41.704 112.373 42.312 112.373 42.888V47H111.733V42.888C111.733 42.44 111.717 41.944 111.477 41.576C111.333 41.336 110.981 40.936 110.197 40.936C109.301 40.936 108.837 41.416 108.597 41.848C108.309 42.36 108.245 42.968 108.245 43.608V47H107.605ZM119.995 41.608V35.336H120.635V47H119.995V45.832C119.339 46.84 118.299 47.176 117.467 47.176C115.819 47.176 114.267 45.992 114.267 43.704C114.267 41.32 115.883 40.328 117.467 40.328C118.651 40.328 119.483 40.872 119.995 41.608ZM117.467 40.936C116.123 40.936 114.939 41.864 114.939 43.688C114.939 45.592 116.187 46.568 117.499 46.568C118.795 46.568 120.027 45.592 120.027 43.688C120.027 42.168 119.083 40.936 117.467 40.936ZM128.245 41.608V40.472H128.885V47H128.245V45.832C127.589 46.84 126.549 47.176 125.701 47.176C123.989 47.176 122.517 45.88 122.517 43.736C122.517 41.72 123.797 40.328 125.701 40.328C126.725 40.328 127.621 40.728 128.245 41.608ZM125.733 40.936C124.437 40.936 123.189 41.912 123.189 43.688C123.189 45.16 124.101 46.568 125.749 46.568C127.381 46.568 128.277 45.192 128.277 43.688C128.277 41.752 126.853 40.936 125.733 40.936ZM130.639 49.192L131.599 45.96L132.239 46.152L131.055 49.352L130.639 49.192ZM143.934 40.472H144.574V46.808C144.574 49.272 143.342 50.68 141.294 50.68C139.598 50.68 138.174 49.688 138.094 47.88H138.766C138.878 49.24 139.902 50.072 141.294 50.072C143.87 50.072 143.934 47.48 143.934 46.808V45.88C143.278 46.792 142.286 47.176 141.358 47.176C139.758 47.176 138.142 46.008 138.142 43.736C138.142 41.848 139.39 40.328 141.438 40.328C142.51 40.328 143.374 40.808 143.934 41.608V40.472ZM141.374 40.936C139.758 40.936 138.814 42.264 138.814 43.768C138.814 45.336 139.806 46.568 141.342 46.568C142.958 46.568 143.966 45.304 143.966 43.704C143.966 42.184 142.974 40.936 141.374 40.936ZM152.183 41.608V40.472H152.823V47H152.183V45.832C151.527 46.84 150.487 47.176 149.639 47.176C147.927 47.176 146.455 45.88 146.455 43.736C146.455 41.72 147.735 40.328 149.639 40.328C150.663 40.328 151.559 40.728 152.183 41.608ZM149.671 40.936C148.375 40.936 147.127 41.912 147.127 43.688C147.127 45.16 148.039 46.568 149.687 46.568C151.319 46.568 152.215 45.192 152.215 43.688C152.215 41.752 150.791 40.936 149.671 40.936ZM155.121 47V40.472H155.761V41.496C156.065 40.952 156.657 40.328 157.761 40.328C158.929 40.328 159.425 41.016 159.569 41.24C159.857 41.704 159.889 42.312 159.889 42.888V47H159.249V42.888C159.249 42.44 159.233 41.944 158.993 41.576C158.849 41.336 158.497 40.936 157.713 40.936C156.817 40.936 156.353 41.416 156.113 41.848C155.825 42.36 155.761 42.968 155.761 43.608V47H155.121ZM162.199 47V35.336H162.839V41.496C163.143 40.952 163.735 40.328 164.839 40.328C166.007 40.328 166.503 41.016 166.647 41.24C166.935 41.704 166.967 42.312 166.967 42.888V47H166.327V42.888C166.327 42.44 166.311 41.944 166.071 41.576C165.927 41.336 165.575 40.936 164.791 40.936C163.895 40.936 163.431 41.416 163.191 41.848C162.903 42.36 162.839 42.968 162.839 43.608V47H162.199ZM174.617 43.816H169.033C169.033 45.48 170.249 46.568 171.625 46.568C172.681 46.568 173.481 45.944 173.897 45.08L174.441 45.4C174.057 46.136 173.193 47.176 171.577 47.176C169.545 47.176 168.361 45.672 168.361 43.768C168.361 41.496 169.929 40.328 171.529 40.328C173.289 40.328 174.617 41.736 174.617 43.816ZM169.081 43.208H173.945C173.785 41.912 172.825 40.936 171.529 40.936C170.201 40.936 169.257 41.944 169.081 43.208ZM175.967 49.192L176.927 45.96L177.567 46.152L176.383 49.352L175.967 49.192ZM189.198 41.608V40.472H189.838V47H189.198V45.832C188.542 46.84 187.502 47.176 186.654 47.176C184.942 47.176 183.47 45.88 183.47 43.736C183.47 41.72 184.75 40.328 186.654 40.328C187.678 40.328 188.574 40.728 189.198 41.608ZM186.686 40.936C185.39 40.936 184.142 41.912 184.142 43.688C184.142 45.16 185.054 46.568 186.702 46.568C188.334 46.568 189.23 45.192 189.23 43.688C189.23 41.752 187.806 40.936 186.686 40.936ZM192.776 45.832V50.68H192.136V40.472H192.776V41.608C193.4 40.76 194.296 40.328 195.336 40.328C197.304 40.328 198.504 41.8 198.504 43.688C198.504 45.608 197.288 47.176 195.304 47.176C193.688 47.176 192.968 46.152 192.776 45.832ZM195.288 46.568C196.936 46.568 197.832 45.288 197.832 43.688C197.832 41.896 196.648 40.936 195.304 40.936C194.024 40.936 192.744 41.848 192.744 43.656C192.744 45.288 193.64 46.568 195.288 46.568ZM200.386 47V40.472H201.026V41.32C201.266 40.76 201.762 40.328 202.466 40.328C202.642 40.328 202.914 40.36 203.154 40.488L202.834 41.064C202.77 41.016 202.642 40.936 202.354 40.936C201.042 40.936 201.026 42.68 201.026 43.496V47H200.386ZM207.207 40.328C209.143 40.328 210.631 41.816 210.631 43.752C210.631 45.688 209.143 47.176 207.207 47.176C205.271 47.176 203.783 45.688 203.783 43.752C203.783 41.816 205.271 40.328 207.207 40.328ZM207.207 46.568C208.775 46.568 209.959 45.336 209.959 43.752C209.959 42.168 208.775 40.936 207.207 40.936C205.639 40.936 204.455 42.168 204.455 43.752C204.455 45.336 205.639 46.568 207.207 46.568ZM211.487 40.472H212.191L214.495 45.896L216.767 40.472H217.471L214.495 47.4L211.487 40.472ZM224.586 43.816H219.002C219.002 45.48 220.218 46.568 221.594 46.568C222.65 46.568 223.45 45.944 223.866 45.08L224.41 45.4C224.026 46.136 223.162 47.176 221.546 47.176C219.514 47.176 218.33 45.672 218.33 43.768C218.33 41.496 219.898 40.328 221.498 40.328C223.258 40.328 224.586 41.736 224.586 43.816ZM219.05 43.208H223.914C223.754 41.912 222.794 40.936 221.498 40.936C220.17 40.936 219.226 41.944 219.05 43.208ZM226.48 40.472H227.12V47H226.48V40.472ZM226.8 38.888C226.48 38.888 226.224 38.648 226.224 38.296C226.224 37.944 226.48 37.704 226.8 37.704C227.12 37.704 227.376 37.944 227.376 38.296C227.376 38.648 227.12 38.888 226.8 38.888ZM231.242 41.08H230.106V47H229.466V41.08H228.746V40.472H229.466V38.136H230.106V40.472H231.242V41.08ZM238.367 43.816H232.783C232.783 45.48 233.999 46.568 235.375 46.568C236.431 46.568 237.231 45.944 237.647 45.08L238.191 45.4C237.807 46.136 236.943 47.176 235.327 47.176C233.295 47.176 232.111 45.672 232.111 43.768C232.111 41.496 233.679 40.328 235.279 40.328C237.039 40.328 238.367 41.736 238.367 43.816ZM232.831 43.208H237.695C237.535 41.912 236.575 40.936 235.279 40.936C233.951 40.936 233.007 41.944 232.831 43.208ZM241.541 45.096H240.837V36.328H241.541V45.096ZM240.597 46.52C240.597 46.184 240.853 45.928 241.189 45.928C241.525 45.928 241.781 46.184 241.781 46.52C241.781 46.856 241.525 47.112 241.189 47.112C240.853 47.112 240.597 46.856 240.597 46.52Z" fill="white"/>
<defs>
<filter id="filter0_d_3_270" x="0.392853" y="5.38396" width="61.6071" height="31.8452" filterUnits="userSpaceOnUse" color-interpolation-filters="sRGB">
<feFlood flood-opacity="0" result="BackgroundImageFix"/>
<feColorMatrix in="SourceAlpha" type="matrix" values="0 0 0 0 0 0 0 0 0 0 0 0 0 0 0 0 0 0 127 0" result="hardAlpha"/>
<feOffset dy="4"/>
<feGaussianBlur stdDeviation="2"/>
<feComposite in2="hardAlpha" operator="out"/>
<feColorMatrix type="matrix" values="0 0 0 0 0 0 0 0 0 0 0 0 0 0 0 0 0 0 0.05 0"/>
<feBlend mode="normal" in2="BackgroundImageFix" result="effect1_dropShadow_3_270"/>
<feBlend mode="normal" in="SourceGraphic" in2="effect1_dropShadow_3_270" result="shape"/>
</filter>
<filter id="filter1_d_3_270" x="12.0595" y="0.913696" width="38.119" height="21.2679" filterUnits="userSpaceOnUse" color-interpolation-filters="sRGB">
<feFlood flood-opacity="0" result="BackgroundImageFix"/>
<feColorMatrix in="SourceAlpha" type="matrix" values="0 0 0 0 0 0 0 0 0 0 0 0 0 0 0 0 0 0 127 0" result="hardAlpha"/>
<feOffset dy="4"/>
<feGaussianBlur stdDeviation="2"/>
<feComposite in2="hardAlpha" operator="out"/>
<feColorMatrix type="matrix" values="0 0 0 0 0 0 0 0 0 0 0 0 0 0 0 0 0 0 0.05 0"/>
<feBlend mode="normal" in2="BackgroundImageFix" result="effect1_dropShadow_3_270"/>
<feBlend mode="normal" in="SourceGraphic" in2="effect1_dropShadow_3_270" result="shape"/>
</filter>
<filter id="filter2_d_3_270" x="0" y="12.0625" width="52.6905" height="26.3452" filterUnits="userSpaceOnUse" color-interpolation-filters="sRGB">
<feFlood flood-opacity="0" result="BackgroundImageFix"/>
<feColorMatrix in="SourceAlpha" type="matrix" values="0 0 0 0 0 0 0 0 0 0 0 0 0 0 0 0 0 0 127 0" result="hardAlpha"/>
<feOffset dy="4"/>
<feGaussianBlur stdDeviation="2"/>
<feComposite in2="hardAlpha" operator="out"/>
<feColorMatrix type="matrix" values="0 0 0 0 0 0 0 0 0 0 0 0 0 0 0 0 0 0 0.1 0"/>
<feBlend mode="normal" in2="BackgroundImageFix" result="effect1_dropShadow_3_270"/>
<feBlend mode="normal" in="SourceGraphic" in2="effect1_dropShadow_3_270" result="shape"/>
</filter>
</defs>
</svg>
