<svg width="240" height="58" viewBox="0 0 240 58" fill="none" xmlns="http://www.w3.org/2000/svg">
<path d="M57.0119 14.622V42.0149L49.7738 56.622L49.5357 57.0863L30.369 55.8125L23 55.3244L5.90475 54.1935V21.4315L23 21.9196L30.6548 22.1339L50 22.6815L57.0119 14.622Z" fill="#3485FF"/>
<path opacity="0.1" d="M57.0119 16.2411V42.0149L55.2381 45.5744L53.4286 49.2411L49.7738 56.6221L50.1786 29.2292L50.2619 23.7054L53.7381 19.8602L55.2619 18.1816L57.0119 16.2411Z" fill="#202020"/>
<g filter="url(#filter0_d_3_270)">
<path d="M58 7.34824V16.9197L57.0119 18.4792L55.25 21.2768L53.7024 23.753L50.2619 29.2292H50.1786L4.39285 26.8721V17.4435L4.5119 17.3125L9.97619 11.3959L11.9524 9.253L15.5357 5.38396L58 7.34824Z" fill="#3485FF"/>
</g>
<path d="M33.75 12.0625L30.6786 18.7291L30.6548 22.1339L30.369 55.8125L23 55.3244V18.2887L26.9286 12.0625H33.75Z" fill="#0D114F"/>
<g filter="url(#filter1_d_3_270)">
<path d="M23.6309 12.5149C21.8571 13.1101 19.9524 13.1697 18.1428 12.7054C17.7857 12.6339 17.4643 12.4792 17.1786 12.253C16.8809 11.9197 16.6667 11.5149 16.5833 11.0744C16.2619 10.1697 16.0833 9.21727 16.0595 8.25299C16.0833 7.2887 16.4524 6.2887 17.2381 5.72918C17.3928 5.63394 17.5476 5.51489 17.6786 5.39584C17.8452 5.19346 17.9643 4.95537 18.0238 4.69346C18.5595 3.08632 19.6071 1.39584 21.2738 1.14584C22.8095 0.907748 24.2143 1.97918 25.4047 2.99108L28.0119 5.20537C28.7976 3.07441 31.1667 1.99108 33.2976 2.7887C34.3809 3.19346 35.2381 4.0268 35.6786 5.09822C37.2619 3.32441 39.25 1.95537 41.4762 1.12203C41.9643 0.943462 42.5476 0.7887 43 1.06251C43.2738 1.26489 43.4881 1.5506 43.6071 1.87203C44.3214 3.41965 44.7024 5.11013 44.7381 6.81251C45.1071 6.68156 45.5238 6.82441 45.7381 7.15775C45.9405 7.49108 46.0595 7.86013 46.0714 8.24108C46.1428 8.83632 46.1786 9.43156 46.1786 10.0387C46.1786 10.6697 46.119 11.3482 45.7024 11.8363C45.1666 12.4554 44.25 12.5268 43.4286 12.5387C43.8214 12.8839 43.6309 13.5863 43.1905 13.8839C42.75 14.1816 42.1905 14.1816 41.6666 14.1816C39.6428 14.1577 37.4881 14.1101 35.7976 12.9792C35.1309 12.5387 34.5714 11.9435 33.9047 11.503C32.2738 10.4197 30.2143 10.372 28.3214 10.4554C26.6071 10.5387 25.2619 11.9554 23.6309 12.503V12.5149Z" fill="#0D114F"/>
</g>
<g filter="url(#filter2_d_3_270)">
<path d="M23.2619 12.0625C23.2619 12.0625 6.35714 14.4196 4 24.6458L7.53571 24.122L10.0238 28.5744C10.0238 28.5744 12.6429 18.6101 20.381 16.2529C28.119 13.8958 30.869 13.5029 30.869 13.5029C30.869 13.5029 36.2381 14.8125 41.0952 30.4077L43.8452 26.6101L48.6905 27.6577C48.6905 27.6577 45.1548 15.4672 35.5833 12.0625H23.2619Z" fill="#0D114F"/>
</g>
<path d="M77.88 24.2V21.72H84.5V21.86C84.5 23.48 83.92 25.94 82.44 27.48C80.96 29.02 79.26 29.3 77.68 29.3C76.08 29.3 74.36 29.04 72.8 27.44C72.02 26.64 70.84 25.02 70.84 22.36C70.84 20.18 71.64 18.44 72.76 17.3C74.4 15.6 76.42 15.36 78 15.36C79.1 15.36 80.5 15.54 81.74 16.36C82.64 16.96 83.42 17.9 83.9 18.74L81.12 20.24C80.86 19.72 80.46 19.18 79.94 18.8C79.34 18.36 78.66 18.16 77.9 18.16C76.68 18.16 75.78 18.56 75.14 19.24C74.4 20.02 74 21.16 74 22.4C74 23.92 74.56 24.9 75.12 25.46C75.9 26.26 76.8 26.5 77.82 26.5C79.14 26.5 79.84 26.04 80.14 25.78C80.24 25.7 80.84 25.18 81.1 24.2H77.88ZM93.292 21.08V20.08H96.172V29H93.292V27.92C92.512 29.12 91.392 29.3 90.652 29.3C89.372 29.3 88.292 28.98 87.312 27.94C86.372 26.94 86.012 25.78 86.012 24.6C86.012 23.1 86.572 21.82 87.392 21C88.172 20.22 89.252 19.78 90.492 19.78C91.252 19.78 92.472 19.96 93.292 21.08ZM91.212 22.26C90.592 22.26 90.012 22.52 89.632 22.9C89.332 23.2 88.972 23.72 88.972 24.52C88.972 25.32 89.312 25.84 89.572 26.12C89.972 26.54 90.592 26.82 91.272 26.82C91.852 26.82 92.392 26.58 92.772 26.2C93.152 25.84 93.472 25.28 93.472 24.52C93.472 23.88 93.232 23.28 92.812 22.88C92.372 22.46 91.732 22.26 91.212 22.26ZM98.4052 29V20.08H101.285V21.14C102.165 20.02 103.205 19.84 104.045 19.84C104.825 19.84 105.845 19.98 106.605 20.74C107.445 21.58 107.505 22.64 107.505 23.36V29H104.625V24.42C104.625 23.84 104.605 23.1 104.145 22.64C103.925 22.42 103.565 22.24 103.045 22.24C102.445 22.24 102.065 22.48 101.845 22.72C101.365 23.2 101.285 23.84 101.285 24.42V29H98.4052ZM109.833 29V14.42H112.713V21.14C113.073 20.7 113.453 20.4 113.793 20.22C114.393 19.9 114.893 19.84 115.533 19.84C116.233 19.84 117.273 19.94 118.053 20.74C118.873 21.56 118.933 22.66 118.933 23.34V29H116.053V24.42C116.053 23.8 116.033 23.08 115.573 22.64C115.313 22.38 114.873 22.24 114.453 22.24C113.833 22.24 113.473 22.52 113.313 22.68C112.733 23.24 112.713 24.1 112.713 24.54V29H109.833ZM131.004 24.54C131.004 25.68 130.564 26.96 129.664 27.86C128.864 28.66 127.504 29.3 125.764 29.3C124.024 29.3 122.664 28.66 121.864 27.86C120.964 26.96 120.524 25.68 120.524 24.54C120.524 23.4 120.964 22.12 121.864 21.22C122.664 20.42 124.024 19.78 125.764 19.78C127.504 19.78 128.864 20.42 129.664 21.22C130.564 22.12 131.004 23.4 131.004 24.54ZM125.764 22.22C125.104 22.22 124.564 22.44 124.144 22.86C123.724 23.28 123.484 23.82 123.484 24.54C123.484 25.36 123.804 25.88 124.144 26.22C124.504 26.58 125.024 26.86 125.784 26.86C126.424 26.86 126.964 26.64 127.384 26.22C127.804 25.8 128.044 25.26 128.044 24.54C128.044 23.82 127.804 23.28 127.384 22.86C126.964 22.44 126.424 22.22 125.764 22.22ZM132.8 20.08H135.68V25C135.68 25.4 135.72 26.02 136.18 26.44C136.38 26.62 136.74 26.86 137.38 26.86C137.92 26.86 138.34 26.68 138.6 26.44C139.02 26.04 139.08 25.44 139.08 25V20.08H141.96V25.28C141.96 26.3 141.86 27.26 140.96 28.14C139.94 29.14 138.44 29.3 137.38 29.3C136.28 29.3 134.8 29.14 133.78 28.14C132.96 27.34 132.8 26.44 132.8 25.46V20.08ZM149.214 15.66H153.294C154.014 15.66 155.654 15.7 156.694 16.68C157.554 17.5 157.654 18.62 157.654 19.2C157.654 19.72 157.574 20.32 157.214 20.9C156.874 21.46 156.414 21.74 156.094 21.88C156.734 21.98 157.454 22.3 157.934 22.78C158.374 23.22 158.794 23.98 158.794 25.16C158.794 26.5 158.274 27.34 157.754 27.86C156.654 28.92 155.054 29 154.234 29H149.214V15.66ZM152.254 18.06V21.08H152.754C153.174 21.08 153.874 21.02 154.314 20.7C154.594 20.5 154.854 20.1 154.854 19.52C154.854 18.94 154.574 18.58 154.334 18.4C153.894 18.06 153.294 18.06 152.734 18.06H152.254ZM152.254 23.36V26.6H152.994C153.774 26.6 154.714 26.58 155.274 26.06C155.554 25.8 155.714 25.42 155.714 24.94C155.714 24.4 155.494 24.04 155.294 23.86C154.754 23.36 153.714 23.36 153.094 23.36H152.254ZM163.329 23.32H167.229C167.209 23.24 167.069 22.68 166.649 22.28C166.329 21.98 165.869 21.78 165.289 21.78C164.549 21.78 164.109 22.08 163.829 22.36C163.609 22.6 163.409 22.92 163.329 23.32ZM169.889 24.74V25.04H163.229C163.229 25.52 163.409 26.16 163.769 26.56C164.209 27.04 164.809 27.12 165.249 27.12C165.669 27.12 166.109 27.04 166.409 26.86C166.449 26.84 166.789 26.62 167.029 26.12L169.749 26.4C169.349 27.66 168.549 28.32 168.029 28.64C167.169 29.16 166.209 29.3 165.209 29.3C163.869 29.3 162.689 29.06 161.649 28.02C160.869 27.24 160.309 26.06 160.309 24.58C160.309 23.3 160.769 21.98 161.669 21.06C162.749 19.98 164.089 19.78 165.089 19.78C166.089 19.78 167.529 19.96 168.629 21.12C169.689 22.24 169.889 23.64 169.889 24.74ZM171.686 29V20.08H174.566V21.14C175.446 20.02 176.486 19.84 177.326 19.84C178.106 19.84 179.126 19.98 179.886 20.74C180.726 21.58 180.786 22.64 180.786 23.36V29H177.906V24.42C177.906 23.84 177.886 23.1 177.426 22.64C177.206 22.42 176.846 22.24 176.326 22.24C175.726 22.24 175.346 22.48 175.126 22.72C174.646 23.2 174.566 23.84 174.566 24.42V29H171.686ZM185.614 23.32H189.514C189.494 23.24 189.354 22.68 188.934 22.28C188.614 21.98 188.154 21.78 187.574 21.78C186.834 21.78 186.394 22.08 186.114 22.36C185.894 22.6 185.694 22.92 185.614 23.32ZM192.174 24.74V25.04H185.514C185.514 25.52 185.694 26.16 186.054 26.56C186.494 27.04 187.094 27.12 187.534 27.12C187.954 27.12 188.394 27.04 188.694 26.86C188.734 26.84 189.074 26.62 189.314 26.12L192.034 26.4C191.634 27.66 190.834 28.32 190.314 28.64C189.454 29.16 188.494 29.3 187.494 29.3C186.154 29.3 184.974 29.06 183.934 28.02C183.154 27.24 182.594 26.06 182.594 24.58C182.594 23.3 183.054 21.98 183.954 21.06C185.034 19.98 186.374 19.78 187.374 19.78C188.374 19.78 189.814 19.96 190.914 21.12C191.974 22.24 192.174 23.64 192.174 24.74ZM199.372 22.4H197.092V29H194.212V22.4H193.172V20.08H194.212V18.32C194.212 17.32 194.312 16.18 195.212 15.22C195.792 14.6 196.612 14.2 197.712 14.2C198.352 14.2 198.872 14.32 199.352 14.5V17.02C199.032 16.82 198.612 16.68 198.252 16.68C197.812 16.68 197.532 16.88 197.412 17.04C197.092 17.46 197.092 18.16 197.092 18.58V20.08H199.372V22.4ZM201.086 20.08H203.966V29H201.086V20.08ZM203.266 14.7L205.146 16L202.506 18.7L201.206 17.74L203.266 14.7ZM213.113 20.28V22.9C212.413 22.32 211.693 22.22 211.233 22.22C210.333 22.22 209.793 22.66 209.593 22.86C209.213 23.24 208.933 23.82 208.933 24.54C208.933 25.2 209.173 25.76 209.533 26.14C209.973 26.62 210.633 26.86 211.273 26.86C211.773 26.86 212.453 26.72 213.113 26.16V28.76C212.353 29.18 211.633 29.3 210.833 29.3C209.333 29.3 208.193 28.76 207.373 27.96C206.693 27.3 205.973 26.18 205.973 24.56C205.973 23.04 206.613 21.84 207.453 21.04C208.453 20.1 209.633 19.78 210.853 19.78C211.633 19.78 212.353 19.92 213.113 20.28ZM215.226 20.08H218.106V29H215.226V20.08ZM214.986 16.28C214.986 15.34 215.726 14.6 216.666 14.6C217.606 14.6 218.346 15.34 218.346 16.28C218.346 17.22 217.606 17.96 216.666 17.96C215.726 17.96 214.986 17.22 214.986 16.28ZM230.594 24.54C230.594 25.68 230.154 26.96 229.254 27.86C228.454 28.66 227.094 29.3 225.354 29.3C223.614 29.3 222.254 28.66 221.454 27.86C220.554 26.96 220.114 25.68 220.114 24.54C220.114 23.4 220.554 22.12 221.454 21.22C222.254 20.42 223.614 19.78 225.354 19.78C227.094 19.78 228.454 20.42 229.254 21.22C230.154 22.12 230.594 23.4 230.594 24.54ZM225.354 22.22C224.694 22.22 224.154 22.44 223.734 22.86C223.314 23.28 223.074 23.82 223.074 24.54C223.074 25.36 223.394 25.88 223.734 26.22C224.094 26.58 224.614 26.86 225.374 26.86C226.014 26.86 226.554 26.64 226.974 26.22C227.394 25.8 227.634 25.26 227.634 24.54C227.634 23.82 227.394 23.28 226.974 22.86C226.554 22.44 226.014 22.22 225.354 22.22ZM238.99 20.54L237.85 22.36C237.41 22.1 236.83 21.86 236.27 21.86C235.97 21.86 235.63 21.94 235.45 22.12C235.35 22.22 235.27 22.38 235.27 22.52C235.27 22.72 235.41 22.84 235.55 22.92C235.75 23.04 236.05 23.1 236.41 23.22L237.17 23.46C237.67 23.62 238.19 23.82 238.65 24.24C239.17 24.72 239.35 25.26 239.35 25.94C239.35 27.12 238.83 27.88 238.43 28.28C237.55 29.16 236.47 29.3 235.53 29.3C234.33 29.3 233.03 29.04 231.87 28.02L233.09 26.08C233.37 26.32 233.77 26.6 234.07 26.74C234.47 26.94 234.89 27.02 235.27 27.02C235.45 27.02 235.91 27.02 236.17 26.82C236.35 26.68 236.47 26.46 236.47 26.24C236.47 26.08 236.41 25.88 236.15 25.72C235.95 25.6 235.69 25.52 235.27 25.4L234.55 25.18C234.03 25.02 233.49 24.74 233.11 24.36C232.69 23.92 232.47 23.42 232.47 22.74C232.47 21.88 232.81 21.16 233.33 20.68C234.13 19.94 235.21 19.78 236.03 19.78C237.35 19.78 238.27 20.12 238.99 20.54Z" fill="white"/>
<path d="M74.48 41.384L73.936 41.672C73.712 41.16 73.264 40.936 72.8 40.936C72.064 40.936 71.696 41.496 71.696 41.976C71.696 42.616 72.208 42.824 72.848 43.08C73.504 43.336 74.112 43.512 74.528 44.04C74.8 44.376 74.864 44.728 74.864 45.096C74.864 46.584 73.744 47.176 72.736 47.176C71.648 47.176 70.752 46.536 70.48 45.448L71.104 45.256C71.328 46.12 72.016 46.568 72.736 46.568C73.568 46.568 74.192 45.976 74.192 45.128C74.192 44.392 73.728 44.12 72.736 43.72C72.08 43.448 71.6 43.24 71.312 42.856C71.168 42.664 71.024 42.392 71.024 42.008C71.024 41.016 71.776 40.328 72.768 40.328C73.536 40.328 74.176 40.68 74.48 41.384ZM81.8078 41.608V40.472H82.4478V47H81.8078V45.832C81.1518 46.84 80.1118 47.176 79.2638 47.176C77.5518 47.176 76.0798 45.88 76.0798 43.736C76.0798 41.72 77.3598 40.328 79.2638 40.328C80.2878 40.328 81.1838 40.728 81.8078 41.608ZM79.2958 40.936C77.9998 40.936 76.7518 41.912 76.7518 43.688C76.7518 45.16 77.6638 46.568 79.3118 46.568C80.9438 46.568 81.8398 45.192 81.8398 43.688C81.8398 41.752 80.4158 40.936 79.2958 40.936ZM84.7458 40.472H85.3858V44.408C85.3858 44.872 85.4018 45.56 85.8018 46.04C86.2018 46.52 86.7938 46.568 87.0978 46.568C87.4018 46.568 87.9938 46.52 88.3938 46.04C88.7938 45.56 88.8098 44.872 88.8098 44.408V40.472H89.4498V44.584C89.4498 45.112 89.4018 45.8 88.9538 46.376C88.4578 47.016 87.6738 47.176 87.0978 47.176C86.5218 47.176 85.7378 47.016 85.2418 46.376C84.7938 45.8 84.7458 45.112 84.7458 44.584V40.472ZM87.9778 37.08L88.6658 37.48L86.9858 39.528L86.5058 39.272L87.9778 37.08ZM97.0734 41.608V35.336H97.7134V47H97.0734V45.832C96.4174 46.84 95.3774 47.176 94.5454 47.176C92.8974 47.176 91.3454 45.992 91.3454 43.704C91.3454 41.32 92.9614 40.328 94.5454 40.328C95.7294 40.328 96.5614 40.872 97.0734 41.608ZM94.5454 40.936C93.2014 40.936 92.0174 41.864 92.0174 43.688C92.0174 45.592 93.2654 46.568 94.5774 46.568C95.8734 46.568 97.1054 45.592 97.1054 43.688C97.1054 42.168 96.1614 40.936 94.5454 40.936ZM105.851 43.816H100.267C100.267 45.48 101.483 46.568 102.859 46.568C103.915 46.568 104.715 45.944 105.131 45.08L105.675 45.4C105.291 46.136 104.427 47.176 102.811 47.176C100.779 47.176 99.5954 45.672 99.5954 43.768C99.5954 41.496 101.163 40.328 102.763 40.328C104.523 40.328 105.851 41.736 105.851 43.816ZM100.315 43.208H105.179C105.019 41.912 104.059 40.936 102.763 40.936C101.435 40.936 100.491 41.944 100.315 43.208ZM117.32 43.816H111.736C111.736 45.48 112.952 46.568 114.328 46.568C115.384 46.568 116.184 45.944 116.6 45.08L117.144 45.4C116.76 46.136 115.896 47.176 114.28 47.176C112.248 47.176 111.064 45.672 111.064 43.768C111.064 41.496 112.632 40.328 114.232 40.328C115.992 40.328 117.32 41.736 117.32 43.816ZM111.784 43.208H116.648C116.488 41.912 115.528 40.936 114.232 40.936C112.904 40.936 111.96 41.944 111.784 43.208ZM122.949 35.336H123.589V41.608C124.213 40.76 125.109 40.328 126.149 40.328C128.117 40.328 129.317 41.8 129.317 43.688C129.317 45.608 128.101 47.176 126.117 47.176C124.501 47.176 123.781 46.152 123.589 45.832V47H122.949V35.336ZM126.101 46.568C127.749 46.568 128.645 45.288 128.645 43.688C128.645 41.896 127.461 40.936 126.117 40.936C124.837 40.936 123.557 41.848 123.557 43.656C123.557 45.288 124.453 46.568 126.101 46.568ZM137.039 43.816H131.455C131.455 45.48 132.671 46.568 134.047 46.568C135.103 46.568 135.903 45.944 136.319 45.08L136.863 45.4C136.479 46.136 135.615 47.176 133.999 47.176C131.967 47.176 130.783 45.672 130.783 43.768C130.783 41.496 132.351 40.328 133.951 40.328C135.711 40.328 137.039 41.736 137.039 43.816ZM131.503 43.208H136.367C136.207 41.912 135.247 40.936 133.951 40.936C132.623 40.936 131.679 41.944 131.503 43.208ZM138.933 47V40.472H139.573V41.288C140.069 40.44 140.821 40.328 141.269 40.328C142.549 40.328 142.965 41.176 143.093 41.512C143.461 40.728 144.165 40.328 145.029 40.328C145.749 40.328 146.213 40.584 146.501 40.872C147.029 41.4 147.061 42.12 147.061 42.648V47H146.421V42.648C146.421 42.216 146.389 41.672 146.037 41.304C145.749 41 145.365 40.936 145.061 40.936C143.333 40.936 143.317 42.664 143.317 43.064V47H142.677V42.808C142.677 42.392 142.645 40.936 141.237 40.936C140.101 40.936 139.573 41.928 139.573 43.224V47H138.933ZM158.945 43.816H153.361C153.361 45.48 154.577 46.568 155.953 46.568C157.009 46.568 157.809 45.944 158.225 45.08L158.769 45.4C158.385 46.136 157.521 47.176 155.905 47.176C153.873 47.176 152.689 45.672 152.689 43.768C152.689 41.496 154.257 40.328 155.857 40.328C157.617 40.328 158.945 41.736 158.945 43.816ZM153.409 43.208H158.273C158.113 41.912 157.153 40.936 155.857 40.936C154.529 40.936 153.585 41.944 153.409 43.208ZM164.168 41.384L163.624 41.672C163.4 41.16 162.952 40.936 162.488 40.936C161.752 40.936 161.384 41.496 161.384 41.976C161.384 42.616 161.896 42.824 162.536 43.08C163.192 43.336 163.799 43.512 164.216 44.04C164.488 44.376 164.552 44.728 164.552 45.096C164.552 46.584 163.432 47.176 162.424 47.176C161.336 47.176 160.44 46.536 160.168 45.448L160.792 45.256C161.016 46.12 161.704 46.568 162.424 46.568C163.256 46.568 163.88 45.976 163.88 45.128C163.88 44.392 163.416 44.12 162.424 43.72C161.768 43.448 161.288 43.24 161 42.856C160.856 42.664 160.712 42.392 160.712 42.008C160.712 41.016 161.464 40.328 162.456 40.328C163.224 40.328 163.864 40.68 164.168 41.384ZM168.007 41.08H166.871V47H166.231V41.08H165.511V40.472H166.231V38.136H166.871V40.472H168.007V41.08ZM174.605 41.608V40.472H175.245V47H174.605V45.832C173.949 46.84 172.909 47.176 172.061 47.176C170.349 47.176 168.877 45.88 168.877 43.736C168.877 41.72 170.157 40.328 172.061 40.328C173.085 40.328 173.981 40.728 174.605 41.608ZM172.093 40.936C170.797 40.936 169.549 41.912 169.549 43.688C169.549 45.16 170.461 46.568 172.109 46.568C173.741 46.568 174.637 45.192 174.637 43.688C174.637 41.752 173.213 40.936 172.093 40.936ZM177.543 47V40.472H178.183V41.32C178.423 40.76 178.919 40.328 179.623 40.328C179.799 40.328 180.071 40.36 180.311 40.488L179.991 41.064C179.927 41.016 179.799 40.936 179.511 40.936C178.199 40.936 178.183 42.68 178.183 43.496V47H177.543Z" fill="white"/>
<defs>
<filter id="filter0_d_3_270" x="0.392853" y="5.38396" width="61.6071" height="31.8452" filterUnits="userSpaceOnUse" color-interpolation-filters="sRGB">
<feFlood flood-opacity="0" result="BackgroundImageFix"/>
<feColorMatrix in="SourceAlpha" type="matrix" values="0 0 0 0 0 0 0 0 0 0 0 0 0 0 0 0 0 0 127 0" result="hardAlpha"/>
<feOffset dy="4"/>
<feGaussianBlur stdDeviation="2"/>
<feComposite in2="hardAlpha" operator="out"/>
<feColorMatrix type="matrix" values="0 0 0 0 0 0 0 0 0 0 0 0 0 0 0 0 0 0 0.05 0"/>
<feBlend mode="normal" in2="BackgroundImageFix" result="effect1_dropShadow_3_270"/>
<feBlend mode="normal" in="SourceGraphic" in2="effect1_dropShadow_3_270" result="shape"/>
</filter>
<filter id="filter1_d_3_270" x="12.0595" y="0.913696" width="38.119" height="21.2679" filterUnits="userSpaceOnUse" color-interpolation-filters="sRGB">
<feFlood flood-opacity="0" result="BackgroundImageFix"/>
<feColorMatrix in="SourceAlpha" type="matrix" values="0 0 0 0 0 0 0 0 0 0 0 0 0 0 0 0 0 0 127 0" result="hardAlpha"/>
<feOffset dy="4"/>
<feGaussianBlur stdDeviation="2"/>
<feComposite in2="hardAlpha" operator="out"/>
<feColorMatrix type="matrix" values="0 0 0 0 0 0 0 0 0 0 0 0 0 0 0 0 0 0 0.05 0"/>
<feBlend mode="normal" in2="BackgroundImageFix" result="effect1_dropShadow_3_270"/>
<feBlend mode="normal" in="SourceGraphic" in2="effect1_dropShadow_3_270" result="shape"/>
</filter>
<filter id="filter2_d_3_270" x="0" y="12.0625" width="52.6905" height="26.3452" filterUnits="userSpaceOnUse" color-interpolation-filters="sRGB">
<feFlood flood-opacity="0" result="BackgroundImageFix"/>
<feColorMatrix in="SourceAlpha" type="matrix" values="0 0 0 0 0 0 0 0 0 0 0 0 0 0 0 0 0 0 127 0" result="hardAlpha"/>
<feOffset dy="4"/>
<feGaussianBlur stdDeviation="2"/>
<feComposite in2="hardAlpha" operator="out"/>
<feColorMatrix type="matrix" values="0 0 0 0 0 0 0 0 0 0 0 0 0 0 0 0 0 0 0.1 0"/>
<feBlend mode="normal" in2="BackgroundImageFix" result="effect1_dropShadow_3_270"/>
<feBlend mode="normal" in="SourceGraphic" in2="effect1_dropShadow_3_270" result="shape"/>
</filter>
</defs>
</svg>
