<svg width="250" height="57" viewBox="0 0 250 57" fill="none" xmlns="http://www.w3.org/2000/svg">
<path d="M57.0119 13.7083V41.1012L49.7738 55.7083L49.5357 56.1726L30.369 54.8988L23 54.4107L5.90476 53.2797V20.5178L23 21.0059L30.6548 21.2202L50 21.7678L57.0119 13.7083Z" fill="#3485FF"/>
<path opacity="0.1" d="M57.0119 15.3274V41.1012L55.2381 44.6607L53.4286 48.3274L49.7738 55.7083L50.1786 28.3155L50.2619 22.7917L53.7381 18.9464L55.2619 17.2679L57.0119 15.3274Z" fill="#202020"/>
<g filter="url(#filter0_d_14_2)">
<path d="M58 6.43456V16.006L57.0119 17.5655L55.25 20.3631L53.7024 22.8393L50.2619 28.3155H50.1786L4.39286 25.9584V16.5298L4.51191 16.3988L9.97619 10.4822L11.9524 8.33932L15.5357 4.47028L58 6.43456Z" fill="#3485FF"/>
</g>
<path d="M33.75 11.1488L30.6786 17.8155L30.6548 21.2202L30.369 54.8988L23 54.4107V17.375L26.9286 11.1488H33.75Z" fill="#0D114F"/>
<g filter="url(#filter1_d_14_2)">
<path d="M23.631 11.6012C21.8571 12.1964 19.9524 12.256 18.1429 11.7917C17.7857 11.7202 17.4643 11.5655 17.1786 11.3393C16.881 11.006 16.6667 10.6012 16.5833 10.1607C16.2619 9.25596 16.0833 8.30358 16.0595 7.33929C16.0833 6.375 16.4524 5.375 17.2381 4.81548C17.3929 4.72024 17.5476 4.60119 17.6786 4.48215C17.8452 4.27977 17.9643 4.04167 18.0238 3.77977C18.5595 2.17262 19.6071 0.482147 21.2738 0.232147C22.8095 -0.00594854 24.2143 1.06548 25.4048 2.07738L28.0119 4.29167C28.7976 2.16072 31.1667 1.07738 33.2976 1.875C34.381 2.27977 35.2381 3.1131 35.6786 4.18453C37.2619 2.41072 39.25 1.04167 41.4762 0.208337C41.9643 0.0297657 42.5476 -0.124996 43 0.148813C43.2738 0.351194 43.4881 0.636909 43.6071 0.958337C44.3214 2.50596 44.7024 4.19643 44.7381 5.89881C45.1071 5.76786 45.5238 5.91072 45.7381 6.24405C45.9405 6.57738 46.0595 6.94643 46.0714 7.32738C46.1429 7.92262 46.1786 8.51786 46.1786 9.125C46.1786 9.75596 46.119 10.4345 45.7024 10.9226C45.1667 11.5417 44.25 11.6131 43.4286 11.625C43.8214 11.9702 43.6309 12.6726 43.1905 12.9702C42.75 13.2679 42.1905 13.2679 41.6667 13.2679C39.6429 13.2441 37.4881 13.1964 35.7976 12.0655C35.131 11.625 34.5714 11.0298 33.9048 10.5893C32.2738 9.50596 30.2143 9.45834 28.3214 9.54167C26.6071 9.625 25.2619 11.0417 23.631 11.5893V11.6012Z" fill="#0D114F"/>
</g>
<g filter="url(#filter2_d_14_2)">
<path d="M23.2619 11.1488C23.2619 11.1488 6.35714 13.5059 4 23.7321L7.53571 23.2083L10.0238 27.6607C10.0238 27.6607 12.6429 17.6964 20.381 15.3393C28.119 12.9821 30.869 12.5893 30.869 12.5893C30.869 12.5893 36.2381 13.8988 41.0952 29.494L43.8452 25.6964L48.6905 26.744C48.6905 26.744 45.1548 14.5536 35.5833 11.1488H23.2619Z" fill="#0D114F"/>
</g>
<path d="M75.88 23.2863V20.8063H82.5V20.9463C82.5 22.5663 81.92 25.0263 80.44 26.5663C78.96 28.1063 77.26 28.3863 75.68 28.3863C74.08 28.3863 72.36 28.1263 70.8 26.5263C70.02 25.7263 68.84 24.1063 68.84 21.4463C68.84 19.2663 69.64 17.5263 70.76 16.3863C72.4 14.6863 74.42 14.4463 76 14.4463C77.1 14.4463 78.5 14.6263 79.74 15.4463C80.64 16.0463 81.42 16.9863 81.9 17.8263L79.12 19.3263C78.86 18.8063 78.46 18.2663 77.94 17.8863C77.34 17.4463 76.66 17.2463 75.9 17.2463C74.68 17.2463 73.78 17.6463 73.14 18.3263C72.4 19.1063 72 20.2463 72 21.4863C72 23.0063 72.56 23.9863 73.12 24.5463C73.9 25.3463 74.8 25.5863 75.82 25.5863C77.14 25.5863 77.84 25.1263 78.14 24.8663C78.24 24.7863 78.84 24.2663 79.1 23.2863H75.88ZM91.292 20.1663V19.1663H94.172V28.0863H91.292V27.0063C90.512 28.2063 89.392 28.3863 88.652 28.3863C87.372 28.3863 86.292 28.0663 85.312 27.0263C84.372 26.0263 84.012 24.8663 84.012 23.6863C84.012 22.1863 84.572 20.9063 85.392 20.0863C86.172 19.3063 87.252 18.8663 88.492 18.8663C89.252 18.8663 90.472 19.0463 91.292 20.1663ZM89.212 21.3463C88.592 21.3463 88.012 21.6063 87.632 21.9863C87.332 22.2863 86.972 22.8063 86.972 23.6063C86.972 24.4063 87.312 24.9263 87.572 25.2063C87.972 25.6263 88.592 25.9063 89.272 25.9063C89.852 25.9063 90.392 25.6663 90.772 25.2863C91.152 24.9263 91.472 24.3663 91.472 23.6063C91.472 22.9663 91.232 22.3663 90.812 21.9663C90.372 21.5463 89.732 21.3463 89.212 21.3463ZM96.4052 28.0863V19.1663H99.2852V20.2263C100.165 19.1063 101.205 18.9263 102.045 18.9263C102.825 18.9263 103.845 19.0663 104.605 19.8263C105.445 20.6663 105.505 21.7263 105.505 22.4463V28.0863H102.625V23.5063C102.625 22.9263 102.605 22.1863 102.145 21.7263C101.925 21.5063 101.565 21.3263 101.045 21.3263C100.445 21.3263 100.065 21.5663 99.8452 21.8063C99.3652 22.2863 99.2852 22.9263 99.2852 23.5063V28.0863H96.4052ZM107.833 28.0863V13.5063H110.713V20.2263C111.073 19.7863 111.453 19.4863 111.793 19.3063C112.393 18.9863 112.893 18.9263 113.533 18.9263C114.233 18.9263 115.273 19.0263 116.053 19.8263C116.873 20.6463 116.933 21.7463 116.933 22.4263V28.0863H114.053V23.5063C114.053 22.8863 114.033 22.1663 113.573 21.7263C113.313 21.4663 112.873 21.3263 112.453 21.3263C111.833 21.3263 111.473 21.6063 111.313 21.7663C110.733 22.3263 110.713 23.1863 110.713 23.6263V28.0863H107.833ZM129.004 23.6263C129.004 24.7663 128.564 26.0463 127.664 26.9463C126.864 27.7463 125.504 28.3863 123.764 28.3863C122.024 28.3863 120.664 27.7463 119.864 26.9463C118.964 26.0463 118.524 24.7663 118.524 23.6263C118.524 22.4863 118.964 21.2063 119.864 20.3063C120.664 19.5063 122.024 18.8663 123.764 18.8663C125.504 18.8663 126.864 19.5063 127.664 20.3063C128.564 21.2063 129.004 22.4863 129.004 23.6263ZM123.764 21.3063C123.104 21.3063 122.564 21.5263 122.144 21.9463C121.724 22.3663 121.484 22.9063 121.484 23.6263C121.484 24.4463 121.804 24.9663 122.144 25.3063C122.504 25.6663 123.024 25.9463 123.784 25.9463C124.424 25.9463 124.964 25.7263 125.384 25.3063C125.804 24.8863 126.044 24.3463 126.044 23.6263C126.044 22.9063 125.804 22.3663 125.384 21.9463C124.964 21.5263 124.424 21.3063 123.764 21.3063ZM130.8 19.1663H133.68V24.0863C133.68 24.4863 133.72 25.1063 134.18 25.5263C134.38 25.7063 134.74 25.9463 135.38 25.9463C135.92 25.9463 136.34 25.7663 136.6 25.5263C137.02 25.1263 137.08 24.5263 137.08 24.0863V19.1663H139.96V24.3663C139.96 25.3863 139.86 26.3463 138.96 27.2263C137.94 28.2263 136.44 28.3863 135.38 28.3863C134.28 28.3863 132.8 28.2263 131.78 27.2263C130.96 26.4263 130.8 25.5263 130.8 24.5463V19.1663ZM147.214 14.7463H151.294C152.014 14.7463 153.654 14.7863 154.694 15.7663C155.554 16.5863 155.654 17.7063 155.654 18.2863C155.654 18.8063 155.574 19.4063 155.214 19.9863C154.874 20.5463 154.414 20.8263 154.094 20.9663C154.734 21.0663 155.454 21.3863 155.934 21.8663C156.374 22.3063 156.794 23.0663 156.794 24.2463C156.794 25.5863 156.274 26.4263 155.754 26.9463C154.654 28.0063 153.054 28.0863 152.234 28.0863H147.214V14.7463ZM150.254 17.1463V20.1663H150.754C151.174 20.1663 151.874 20.1063 152.314 19.7863C152.594 19.5863 152.854 19.1863 152.854 18.6063C152.854 18.0263 152.574 17.6663 152.334 17.4863C151.894 17.1463 151.294 17.1463 150.734 17.1463H150.254ZM150.254 22.4463V25.6863H150.994C151.774 25.6863 152.714 25.6663 153.274 25.1463C153.554 24.8863 153.714 24.5063 153.714 24.0263C153.714 23.4863 153.494 23.1263 153.294 22.9463C152.754 22.4463 151.714 22.4463 151.094 22.4463H150.254ZM161.329 22.4063H165.229C165.209 22.3263 165.069 21.7663 164.649 21.3663C164.329 21.0663 163.869 20.8663 163.289 20.8663C162.549 20.8663 162.109 21.1663 161.829 21.4463C161.609 21.6863 161.409 22.0063 161.329 22.4063ZM167.889 23.8263V24.1263H161.229C161.229 24.6063 161.409 25.2463 161.769 25.6463C162.209 26.1263 162.809 26.2063 163.249 26.2063C163.669 26.2063 164.109 26.1263 164.409 25.9463C164.449 25.9263 164.789 25.7063 165.029 25.2063L167.749 25.4863C167.349 26.7463 166.549 27.4063 166.029 27.7263C165.169 28.2463 164.209 28.3863 163.209 28.3863C161.869 28.3863 160.689 28.1463 159.649 27.1063C158.869 26.3263 158.309 25.1463 158.309 23.6663C158.309 22.3863 158.769 21.0663 159.669 20.1463C160.749 19.0663 162.089 18.8663 163.089 18.8663C164.089 18.8663 165.529 19.0463 166.629 20.2063C167.689 21.3263 167.889 22.7263 167.889 23.8263ZM169.686 28.0863V19.1663H172.566V20.2263C173.446 19.1063 174.486 18.9263 175.326 18.9263C176.106 18.9263 177.126 19.0663 177.886 19.8263C178.726 20.6663 178.786 21.7263 178.786 22.4463V28.0863H175.906V23.5063C175.906 22.9263 175.886 22.1863 175.426 21.7263C175.206 21.5063 174.846 21.3263 174.326 21.3263C173.726 21.3263 173.346 21.5663 173.126 21.8063C172.646 22.2863 172.566 22.9263 172.566 23.5063V28.0863H169.686ZM183.614 22.4063H187.514C187.494 22.3263 187.354 21.7663 186.934 21.3663C186.614 21.0663 186.154 20.8663 185.574 20.8663C184.834 20.8663 184.394 21.1663 184.114 21.4463C183.894 21.6863 183.694 22.0063 183.614 22.4063ZM190.174 23.8263V24.1263H183.514C183.514 24.6063 183.694 25.2463 184.054 25.6463C184.494 26.1263 185.094 26.2063 185.534 26.2063C185.954 26.2063 186.394 26.1263 186.694 25.9463C186.734 25.9263 187.074 25.7063 187.314 25.2063L190.034 25.4863C189.634 26.7463 188.834 27.4063 188.314 27.7263C187.454 28.2463 186.494 28.3863 185.494 28.3863C184.154 28.3863 182.974 28.1463 181.934 27.1063C181.154 26.3263 180.594 25.1463 180.594 23.6663C180.594 22.3863 181.054 21.0663 181.954 20.1463C183.034 19.0663 184.374 18.8663 185.374 18.8663C186.374 18.8663 187.814 19.0463 188.914 20.2063C189.974 21.3263 190.174 22.7263 190.174 23.8263ZM197.372 21.4863H195.092V28.0863H192.212V21.4863H191.172V19.1663H192.212V17.4063C192.212 16.4063 192.312 15.2663 193.212 14.3063C193.792 13.6863 194.612 13.2863 195.712 13.2863C196.352 13.2863 196.872 13.4063 197.352 13.5863V16.1063C197.032 15.9063 196.612 15.7663 196.252 15.7663C195.812 15.7663 195.532 15.9663 195.412 16.1263C195.092 16.5463 195.092 17.2463 195.092 17.6663V19.1663H197.372V21.4863ZM199.086 19.1663H201.966V28.0863H199.086V19.1663ZM201.266 13.7863L203.146 15.0863L200.506 17.7863L199.206 16.8263L201.266 13.7863ZM211.113 19.3663V21.9863C210.413 21.4063 209.693 21.3063 209.233 21.3063C208.333 21.3063 207.793 21.7463 207.593 21.9463C207.213 22.3263 206.933 22.9063 206.933 23.6263C206.933 24.2863 207.173 24.8463 207.533 25.2263C207.973 25.7063 208.633 25.9463 209.273 25.9463C209.773 25.9463 210.453 25.8063 211.113 25.2463V27.8463C210.353 28.2663 209.633 28.3863 208.833 28.3863C207.333 28.3863 206.193 27.8463 205.373 27.0463C204.693 26.3863 203.973 25.2663 203.973 23.6463C203.973 22.1263 204.613 20.9263 205.453 20.1263C206.453 19.1863 207.633 18.8663 208.853 18.8663C209.633 18.8663 210.353 19.0063 211.113 19.3663ZM213.226 19.1663H216.106V28.0863H213.226V19.1663ZM212.986 15.3663C212.986 14.4263 213.726 13.6863 214.666 13.6863C215.606 13.6863 216.346 14.4263 216.346 15.3663C216.346 16.3063 215.606 17.0463 214.666 17.0463C213.726 17.0463 212.986 16.3063 212.986 15.3663ZM228.594 23.6263C228.594 24.7663 228.154 26.0463 227.254 26.9463C226.454 27.7463 225.094 28.3863 223.354 28.3863C221.614 28.3863 220.254 27.7463 219.454 26.9463C218.554 26.0463 218.114 24.7663 218.114 23.6263C218.114 22.4863 218.554 21.2063 219.454 20.3063C220.254 19.5063 221.614 18.8663 223.354 18.8663C225.094 18.8663 226.454 19.5063 227.254 20.3063C228.154 21.2063 228.594 22.4863 228.594 23.6263ZM223.354 21.3063C222.694 21.3063 222.154 21.5263 221.734 21.9463C221.314 22.3663 221.074 22.9063 221.074 23.6263C221.074 24.4463 221.394 24.9663 221.734 25.3063C222.094 25.6663 222.614 25.9463 223.374 25.9463C224.014 25.9463 224.554 25.7263 224.974 25.3063C225.394 24.8863 225.634 24.3463 225.634 23.6263C225.634 22.9063 225.394 22.3663 224.974 21.9463C224.554 21.5263 224.014 21.3063 223.354 21.3063ZM236.99 19.6263L235.85 21.4463C235.41 21.1863 234.83 20.9463 234.27 20.9463C233.97 20.9463 233.63 21.0263 233.45 21.2063C233.35 21.3063 233.27 21.4663 233.27 21.6063C233.27 21.8063 233.41 21.9263 233.55 22.0063C233.75 22.1263 234.05 22.1863 234.41 22.3063L235.17 22.5463C235.67 22.7063 236.19 22.9063 236.65 23.3263C237.17 23.8063 237.35 24.3463 237.35 25.0263C237.35 26.2063 236.83 26.9663 236.43 27.3663C235.55 28.2463 234.47 28.3863 233.53 28.3863C232.33 28.3863 231.03 28.1263 229.87 27.1063L231.09 25.1663C231.37 25.4063 231.77 25.6863 232.07 25.8263C232.47 26.0263 232.89 26.1063 233.27 26.1063C233.45 26.1063 233.91 26.1063 234.17 25.9063C234.35 25.7663 234.47 25.5463 234.47 25.3263C234.47 25.1663 234.41 24.9663 234.15 24.8063C233.95 24.6863 233.69 24.6063 233.27 24.4863L232.55 24.2663C232.03 24.1063 231.49 23.8263 231.11 23.4463C230.69 23.0063 230.47 22.5063 230.47 21.8263C230.47 20.9663 230.81 20.2463 231.33 19.7663C232.13 19.0263 233.21 18.8663 234.03 18.8663C235.35 18.8663 236.27 19.2063 236.99 19.6263Z" fill="white"/>
<path d="M74.72 46.0863H73.92L70.464 41.0463H70.144V46.0863H69.44V35.4143H70.976C71.792 35.4143 72.528 35.4783 73.232 35.9583C74.064 36.5343 74.336 37.4143 74.336 38.2463C74.336 39.3023 73.872 40.3903 72.544 40.8383C71.984 41.0303 71.472 41.0463 71.232 41.0463L74.72 46.0863ZM70.144 36.0543V40.4063H71.168C72.688 40.4063 73.6 39.6063 73.6 38.2303C73.6 37.1583 73.072 36.5983 72.656 36.3743C72.208 36.1183 71.44 36.0543 71.024 36.0543H70.144ZM81.8045 42.9023H76.2205C76.2205 44.5663 77.4365 45.6543 78.8125 45.6543C79.8685 45.6543 80.6685 45.0303 81.0845 44.1663L81.6285 44.4863C81.2445 45.2223 80.3805 46.2623 78.7645 46.2623C76.7325 46.2623 75.5485 44.7583 75.5485 42.8543C75.5485 40.5823 77.1165 39.4143 78.7165 39.4143C80.4765 39.4143 81.8045 40.8223 81.8045 42.9023ZM76.2685 42.2943H81.1325C80.9725 40.9983 80.0125 40.0223 78.7165 40.0223C77.3885 40.0223 76.4445 41.0303 76.2685 42.2943ZM87.0269 40.4703L86.4829 40.7583C86.2589 40.2463 85.8109 40.0223 85.3469 40.0223C84.6109 40.0223 84.2429 40.5823 84.2429 41.0623C84.2429 41.7023 84.7549 41.9103 85.3949 42.1663C86.0509 42.4223 86.6589 42.5983 87.0749 43.1263C87.3469 43.4623 87.4109 43.8143 87.4109 44.1823C87.4109 45.6703 86.2909 46.2623 85.2829 46.2623C84.1949 46.2623 83.2989 45.6223 83.0269 44.5343L83.6509 44.3423C83.8749 45.2063 84.5629 45.6543 85.2829 45.6543C86.1149 45.6543 86.7389 45.0623 86.7389 44.2143C86.7389 43.4783 86.2749 43.2063 85.2829 42.8063C84.6269 42.5343 84.1469 42.3263 83.8589 41.9423C83.7149 41.7503 83.5709 41.4783 83.5709 41.0943C83.5709 40.1023 84.3229 39.4143 85.3149 39.4143C86.0829 39.4143 86.7229 39.7663 87.0269 40.4703ZM89.6826 44.9183V49.7663H89.0426V39.5583H89.6826V40.6943C90.3066 39.8463 91.2026 39.4143 92.2426 39.4143C94.2106 39.4143 95.4106 40.8863 95.4106 42.7743C95.4106 44.6943 94.1946 46.2623 92.2106 46.2623C90.5946 46.2623 89.8746 45.2383 89.6826 44.9183ZM92.1946 45.6543C93.8426 45.6543 94.7386 44.3743 94.7386 42.7743C94.7386 40.9823 93.5546 40.0223 92.2106 40.0223C90.9306 40.0223 89.6506 40.9343 89.6506 42.7423C89.6506 44.3743 90.5466 45.6543 92.1946 45.6543ZM100.301 39.4143C102.237 39.4143 103.725 40.9023 103.725 42.8383C103.725 44.7743 102.237 46.2623 100.301 46.2623C98.3646 46.2623 96.8766 44.7743 96.8766 42.8383C96.8766 40.9023 98.3646 39.4143 100.301 39.4143ZM100.301 45.6543C101.869 45.6543 103.053 44.4223 103.053 42.8383C103.053 41.2543 101.869 40.0223 100.301 40.0223C98.7326 40.0223 97.5486 41.2543 97.5486 42.8383C97.5486 44.4223 98.7326 45.6543 100.301 45.6543ZM105.605 46.0863V39.5583H106.245V40.5823C106.549 40.0383 107.141 39.4143 108.245 39.4143C109.413 39.4143 109.909 40.1023 110.053 40.3263C110.341 40.7903 110.373 41.3983 110.373 41.9743V46.0863H109.733V41.9743C109.733 41.5263 109.717 41.0303 109.477 40.6623C109.333 40.4223 108.981 40.0223 108.197 40.0223C107.301 40.0223 106.837 40.5023 106.597 40.9343C106.309 41.4463 106.245 42.0543 106.245 42.6943V46.0863H105.605ZM117.995 40.6943V34.4223H118.635V46.0863H117.995V44.9183C117.339 45.9263 116.299 46.2623 115.467 46.2623C113.819 46.2623 112.267 45.0783 112.267 42.7903C112.267 40.4063 113.883 39.4143 115.467 39.4143C116.651 39.4143 117.483 39.9583 117.995 40.6943ZM115.467 40.0223C114.123 40.0223 112.939 40.9503 112.939 42.7743C112.939 44.6783 114.187 45.6543 115.499 45.6543C116.795 45.6543 118.027 44.6783 118.027 42.7743C118.027 41.2543 117.083 40.0223 115.467 40.0223ZM126.245 40.6943V39.5583H126.885V46.0863H126.245V44.9183C125.589 45.9263 124.549 46.2623 123.701 46.2623C121.989 46.2623 120.517 44.9663 120.517 42.8223C120.517 40.8063 121.797 39.4143 123.701 39.4143C124.725 39.4143 125.621 39.8143 126.245 40.6943ZM123.733 40.0223C122.437 40.0223 121.189 40.9983 121.189 42.7743C121.189 44.2463 122.101 45.6543 123.749 45.6543C125.381 45.6543 126.277 44.2783 126.277 42.7743C126.277 40.8383 124.853 40.0223 123.733 40.0223ZM128.639 48.2783L129.599 45.0463L130.239 45.2383L129.055 48.4383L128.639 48.2783ZM141.934 39.5583H142.574V45.8943C142.574 48.3583 141.342 49.7663 139.294 49.7663C137.598 49.7663 136.174 48.7743 136.094 46.9663H136.766C136.878 48.3263 137.902 49.1583 139.294 49.1583C141.87 49.1583 141.934 46.5663 141.934 45.8943V44.9663C141.278 45.8783 140.286 46.2623 139.358 46.2623C137.758 46.2623 136.142 45.0943 136.142 42.8223C136.142 40.9343 137.39 39.4143 139.438 39.4143C140.51 39.4143 141.374 39.8943 141.934 40.6943V39.5583ZM139.374 40.0223C137.758 40.0223 136.814 41.3503 136.814 42.8543C136.814 44.4223 137.806 45.6543 139.342 45.6543C140.958 45.6543 141.966 44.3903 141.966 42.7903C141.966 41.2703 140.974 40.0223 139.374 40.0223ZM150.183 40.6943V39.5583H150.823V46.0863H150.183V44.9183C149.527 45.9263 148.487 46.2623 147.639 46.2623C145.927 46.2623 144.455 44.9663 144.455 42.8223C144.455 40.8063 145.735 39.4143 147.639 39.4143C148.663 39.4143 149.559 39.8143 150.183 40.6943ZM147.671 40.0223C146.375 40.0223 145.127 40.9983 145.127 42.7743C145.127 44.2463 146.039 45.6543 147.687 45.6543C149.319 45.6543 150.215 44.2783 150.215 42.7743C150.215 40.8383 148.791 40.0223 147.671 40.0223ZM153.121 46.0863V39.5583H153.761V40.5823C154.065 40.0383 154.657 39.4143 155.761 39.4143C156.929 39.4143 157.425 40.1023 157.569 40.3263C157.857 40.7903 157.889 41.3983 157.889 41.9743V46.0863H157.249V41.9743C157.249 41.5263 157.233 41.0303 156.993 40.6623C156.849 40.4223 156.497 40.0223 155.713 40.0223C154.817 40.0223 154.353 40.5023 154.113 40.9343C153.825 41.4463 153.761 42.0543 153.761 42.6943V46.0863H153.121ZM160.199 46.0863V34.4223H160.839V40.5823C161.143 40.0383 161.735 39.4143 162.839 39.4143C164.007 39.4143 164.503 40.1023 164.647 40.3263C164.935 40.7903 164.967 41.3983 164.967 41.9743V46.0863H164.327V41.9743C164.327 41.5263 164.311 41.0303 164.071 40.6623C163.927 40.4223 163.575 40.0223 162.791 40.0223C161.895 40.0223 161.431 40.5023 161.191 40.9343C160.903 41.4463 160.839 42.0543 160.839 42.6943V46.0863H160.199ZM172.617 42.9023H167.033C167.033 44.5663 168.249 45.6543 169.625 45.6543C170.681 45.6543 171.481 45.0303 171.897 44.1663L172.441 44.4863C172.057 45.2223 171.193 46.2623 169.577 46.2623C167.545 46.2623 166.361 44.7583 166.361 42.8543C166.361 40.5823 167.929 39.4143 169.529 39.4143C171.289 39.4143 172.617 40.8223 172.617 42.9023ZM167.081 42.2943H171.945C171.785 40.9983 170.825 40.0223 169.529 40.0223C168.201 40.0223 167.257 41.0303 167.081 42.2943ZM184.086 42.9023H178.502C178.502 44.5663 179.718 45.6543 181.094 45.6543C182.15 45.6543 182.95 45.0303 183.366 44.1663L183.91 44.4863C183.526 45.2223 182.662 46.2623 181.046 46.2623C179.014 46.2623 177.83 44.7583 177.83 42.8543C177.83 40.5823 179.398 39.4143 180.998 39.4143C182.758 39.4143 184.086 40.8223 184.086 42.9023ZM178.55 42.2943H183.414C183.254 40.9983 182.294 40.0223 180.998 40.0223C179.67 40.0223 178.726 41.0303 178.55 42.2943ZM195.027 40.6943V39.5583H195.667V46.0863H195.027V44.9183C194.371 45.9263 193.331 46.2623 192.483 46.2623C190.771 46.2623 189.299 44.9663 189.299 42.8223C189.299 40.8063 190.579 39.4143 192.483 39.4143C193.507 39.4143 194.403 39.8143 195.027 40.6943ZM192.515 40.0223C191.219 40.0223 189.971 40.9983 189.971 42.7743C189.971 44.2463 190.883 45.6543 192.531 45.6543C194.163 45.6543 195.059 44.2783 195.059 42.7743C195.059 40.8383 193.635 40.0223 192.515 40.0223ZM198.605 44.9183V49.7663H197.965V39.5583H198.605V40.6943C199.229 39.8463 200.125 39.4143 201.165 39.4143C203.133 39.4143 204.333 40.8863 204.333 42.7743C204.333 44.6943 203.117 46.2623 201.133 46.2623C199.517 46.2623 198.797 45.2383 198.605 44.9183ZM201.117 45.6543C202.765 45.6543 203.661 44.3743 203.661 42.7743C203.661 40.9823 202.477 40.0223 201.133 40.0223C199.853 40.0223 198.573 40.9343 198.573 42.7423C198.573 44.3743 199.469 45.6543 201.117 45.6543ZM206.215 46.0863V39.5583H206.855V40.4063C207.095 39.8463 207.591 39.4143 208.295 39.4143C208.471 39.4143 208.743 39.4463 208.983 39.5743L208.663 40.1503C208.599 40.1023 208.471 40.0223 208.183 40.0223C206.871 40.0223 206.855 41.7663 206.855 42.5823V46.0863H206.215ZM213.035 39.4143C214.971 39.4143 216.459 40.9023 216.459 42.8383C216.459 44.7743 214.971 46.2623 213.035 46.2623C211.099 46.2623 209.611 44.7743 209.611 42.8383C209.611 40.9023 211.099 39.4143 213.035 39.4143ZM213.035 45.6543C214.603 45.6543 215.787 44.4223 215.787 42.8383C215.787 41.2543 214.603 40.0223 213.035 40.0223C211.467 40.0223 210.283 41.2543 210.283 42.8383C210.283 44.4223 211.467 45.6543 213.035 45.6543ZM217.316 39.5583H218.02L220.324 44.9823L222.596 39.5583H223.3L220.324 46.4863L217.316 39.5583ZM230.414 42.9023H224.83C224.83 44.5663 226.046 45.6543 227.422 45.6543C228.478 45.6543 229.278 45.0303 229.694 44.1663L230.238 44.4863C229.854 45.2223 228.99 46.2623 227.374 46.2623C225.342 46.2623 224.158 44.7583 224.158 42.8543C224.158 40.5823 225.726 39.4143 227.326 39.4143C229.086 39.4143 230.414 40.8223 230.414 42.9023ZM224.878 42.2943H229.742C229.582 40.9983 228.622 40.0223 227.326 40.0223C225.998 40.0223 225.054 41.0303 224.878 42.2943ZM232.308 39.5583H232.948V46.0863H232.308V39.5583ZM232.628 37.9743C232.308 37.9743 232.052 37.7343 232.052 37.3823C232.052 37.0303 232.308 36.7903 232.628 36.7903C232.948 36.7903 233.204 37.0303 233.204 37.3823C233.204 37.7343 232.948 37.9743 232.628 37.9743ZM237.07 40.1663H235.934V46.0863H235.294V40.1663H234.574V39.5583H235.294V37.2223H235.934V39.5583H237.07V40.1663ZM244.195 42.9023H238.611C238.611 44.5663 239.827 45.6543 241.203 45.6543C242.259 45.6543 243.059 45.0303 243.475 44.1663L244.019 44.4863C243.635 45.2223 242.771 46.2623 241.155 46.2623C239.123 46.2623 237.939 44.7583 237.939 42.8543C237.939 40.5823 239.507 39.4143 241.107 39.4143C242.867 39.4143 244.195 40.8223 244.195 42.9023ZM238.659 42.2943H243.523C243.363 40.9983 242.403 40.0223 241.107 40.0223C239.779 40.0223 238.835 41.0303 238.659 42.2943ZM247.37 44.1823H246.666V35.4143H247.37V44.1823ZM246.426 45.6063C246.426 45.2703 246.682 45.0143 247.018 45.0143C247.354 45.0143 247.61 45.2703 247.61 45.6063C247.61 45.9423 247.354 46.1983 247.018 46.1983C246.682 46.1983 246.426 45.9423 246.426 45.6063Z" fill="white"/>
<defs>
<filter id="filter0_d_14_2" x="0.39286" y="4.47028" width="61.6071" height="31.8452" filterUnits="userSpaceOnUse" color-interpolation-filters="sRGB">
<feFlood flood-opacity="0" result="BackgroundImageFix"/>
<feColorMatrix in="SourceAlpha" type="matrix" values="0 0 0 0 0 0 0 0 0 0 0 0 0 0 0 0 0 0 127 0" result="hardAlpha"/>
<feOffset dy="4"/>
<feGaussianBlur stdDeviation="2"/>
<feComposite in2="hardAlpha" operator="out"/>
<feColorMatrix type="matrix" values="0 0 0 0 0 0 0 0 0 0 0 0 0 0 0 0 0 0 0.05 0"/>
<feBlend mode="normal" in2="BackgroundImageFix" result="effect1_dropShadow_14_2"/>
<feBlend mode="normal" in="SourceGraphic" in2="effect1_dropShadow_14_2" result="shape"/>
</filter>
<filter id="filter1_d_14_2" x="12.0595" y="0" width="38.119" height="21.2679" filterUnits="userSpaceOnUse" color-interpolation-filters="sRGB">
<feFlood flood-opacity="0" result="BackgroundImageFix"/>
<feColorMatrix in="SourceAlpha" type="matrix" values="0 0 0 0 0 0 0 0 0 0 0 0 0 0 0 0 0 0 127 0" result="hardAlpha"/>
<feOffset dy="4"/>
<feGaussianBlur stdDeviation="2"/>
<feComposite in2="hardAlpha" operator="out"/>
<feColorMatrix type="matrix" values="0 0 0 0 0 0 0 0 0 0 0 0 0 0 0 0 0 0 0.05 0"/>
<feBlend mode="normal" in2="BackgroundImageFix" result="effect1_dropShadow_14_2"/>
<feBlend mode="normal" in="SourceGraphic" in2="effect1_dropShadow_14_2" result="shape"/>
</filter>
<filter id="filter2_d_14_2" x="0" y="11.1488" width="52.6905" height="26.3452" filterUnits="userSpaceOnUse" color-interpolation-filters="sRGB">
<feFlood flood-opacity="0" result="BackgroundImageFix"/>
<feColorMatrix in="SourceAlpha" type="matrix" values="0 0 0 0 0 0 0 0 0 0 0 0 0 0 0 0 0 0 127 0" result="hardAlpha"/>
<feOffset dy="4"/>
<feGaussianBlur stdDeviation="2"/>
<feComposite in2="hardAlpha" operator="out"/>
<feColorMatrix type="matrix" values="0 0 0 0 0 0 0 0 0 0 0 0 0 0 0 0 0 0 0.1 0"/>
<feBlend mode="normal" in2="BackgroundImageFix" result="effect1_dropShadow_14_2"/>
<feBlend mode="normal" in="SourceGraphic" in2="effect1_dropShadow_14_2" result="shape"/>
</filter>
</defs>
</svg>
